<svg width="292" height="83" viewBox="0 0 292 83" fill="none" xmlns="http://www.w3.org/2000/svg">
<g filter="url(#filter0_d_98_2103)">
<rect x="24.5303" y="8" width="242.941" height="59" fill="#E27D41"/>
<rect x="267.471" y="13.2061" width="6.94118" height="48.5882" fill="#E27D41"/>
<rect x="274.412" y="20.1475" width="5.20588" height="34.7059" fill="#E27D41"/>
<rect x="12.3828" y="20.1475" width="6.94118" height="34.7059" fill="#E27D41"/>
<rect x="19.3242" y="13.2061" width="5.20588" height="48.5882" fill="#E27D41"/>
<path d="M77.7188 49V27.624H86.5508C89.1535 27.624 91.1375 28.168 92.5028 29.256C93.8895 30.3227 94.5828 31.944 94.5828 34.12C94.5828 35.9333 94.1241 37.3413 93.2068 38.344C92.2895 39.3253 90.9668 39.9867 89.2388 40.328L95.6708 49H91.0948L85.2068 40.616H81.6228V49H77.7188ZM81.6228 37.48H85.8788C87.5001 37.48 88.6948 37.224 89.4628 36.712C90.2521 36.1787 90.6468 35.3253 90.6468 34.152C90.6468 32.936 90.2735 32.0827 89.5268 31.592C88.7801 31.08 87.5641 30.824 85.8788 30.824H81.6228V37.48ZM105.577 49.32C104.041 49.32 102.654 49.0213 101.417 48.424C100.179 47.8267 99.1872 46.952 98.4406 45.8C97.7152 44.6267 97.3526 43.1867 97.3526 41.48C97.3526 39.88 97.6939 38.4933 98.3766 37.32C99.0806 36.1467 100.009 35.24 101.161 34.6C102.334 33.96 103.646 33.64 105.097 33.64C106.59 33.64 107.891 33.928 109.001 34.504C110.11 35.0587 110.974 35.8267 111.593 36.808C112.211 37.7893 112.521 38.9093 112.521 40.168C112.521 40.5307 112.467 40.936 112.361 41.384C112.254 41.832 112.126 42.1947 111.977 42.472H101.097C101.203 43.304 101.459 44.008 101.865 44.584C102.291 45.1387 102.846 45.5653 103.529 45.864C104.211 46.1413 105.011 46.28 105.929 46.28C106.889 46.28 107.742 46.1413 108.489 45.864C109.257 45.5653 109.993 45.1707 110.697 44.68L111.881 47.304C111.006 47.9653 110.046 48.4667 109.001 48.808C107.955 49.1493 106.814 49.32 105.577 49.32ZM101.097 39.912H108.713C108.734 39.848 108.745 39.7947 108.745 39.752C108.766 39.688 108.777 39.6347 108.777 39.592C108.777 38.9733 108.649 38.4507 108.393 38.024C108.137 37.576 107.742 37.224 107.209 36.968C106.675 36.712 106.003 36.584 105.193 36.584C104.51 36.584 103.881 36.7227 103.305 37C102.75 37.256 102.281 37.64 101.897 38.152C101.513 38.6427 101.246 39.2293 101.097 39.912ZM114.811 55.016C114.405 55.016 114.021 54.9947 113.659 54.952C113.275 54.9093 112.923 54.8453 112.603 54.76V51.848C112.837 51.8693 113.072 51.8907 113.307 51.912C113.541 51.9333 113.765 51.944 113.979 51.944C114.683 51.944 115.205 51.7733 115.547 51.432C115.888 51.112 116.059 50.6213 116.059 49.96V33.96H119.707V50.28C119.707 51.9013 119.312 53.096 118.523 53.864C117.733 54.632 116.496 55.016 114.811 55.016ZM117.883 31.24C117.221 31.24 116.699 31.048 116.315 30.664C115.931 30.2587 115.739 29.7573 115.739 29.16C115.739 28.5627 115.931 28.0827 116.315 27.72C116.699 27.336 117.221 27.144 117.883 27.144C118.523 27.144 119.035 27.336 119.419 27.72C119.824 28.104 120.027 28.5947 120.027 29.192C120.027 29.7893 119.824 30.28 119.419 30.664C119.035 31.048 118.523 31.24 117.883 31.24ZM131.323 49.32C129.744 49.32 128.347 49 127.131 48.36C125.936 47.6987 124.987 46.7813 124.283 45.608C123.6 44.4347 123.259 43.0587 123.259 41.48C123.259 39.9013 123.6 38.5253 124.283 37.352C124.987 36.1787 125.936 35.272 127.131 34.632C128.347 33.9707 129.744 33.64 131.323 33.64C132.923 33.64 134.32 33.9707 135.515 34.632C136.709 35.272 137.648 36.1787 138.331 37.352C139.035 38.5253 139.387 39.9013 139.387 41.48C139.387 43.0587 139.045 44.4347 138.363 45.608C137.68 46.7813 136.731 47.6987 135.515 48.36C134.299 49 132.901 49.32 131.323 49.32ZM131.323 46.152C132.197 46.152 132.955 45.96 133.595 45.576C134.235 45.192 134.736 44.648 135.099 43.944C135.461 43.24 135.643 42.4187 135.643 41.48C135.643 40.52 135.461 39.6987 135.099 39.016C134.736 38.312 134.235 37.768 133.595 37.384C132.955 37 132.197 36.808 131.323 36.808C130.469 36.808 129.712 37 129.051 37.384C128.411 37.768 127.909 38.312 127.547 39.016C127.184 39.6987 127.003 40.52 127.003 41.48C127.003 42.4187 127.184 43.24 127.547 43.944C127.909 44.648 128.411 45.192 129.051 45.576C129.691 45.96 130.448 46.152 131.323 46.152ZM142.934 49V33.96H146.582V49H142.934ZM144.758 31.24C144.096 31.24 143.574 31.048 143.19 30.664C142.806 30.2587 142.614 29.7573 142.614 29.16C142.614 28.5627 142.806 28.0827 143.19 27.72C143.574 27.336 144.096 27.144 144.758 27.144C145.398 27.144 145.91 27.336 146.294 27.72C146.699 28.104 146.902 28.5947 146.902 29.192C146.902 29.7893 146.699 30.28 146.294 30.664C145.91 31.048 145.398 31.24 144.758 31.24ZM150.934 49V33.96H154.454V36.008C154.902 35.2827 155.531 34.7067 156.342 34.28C157.152 33.8533 158.144 33.64 159.318 33.64C161.046 33.64 162.39 34.1307 163.35 35.112C164.331 36.0933 164.822 37.608 164.822 39.656V49H161.174V40.2C161.174 39.048 160.928 38.1947 160.438 37.64C159.968 37.0853 159.243 36.808 158.262 36.808C157.11 36.808 156.203 37.2027 155.542 37.992C154.902 38.76 154.582 39.8373 154.582 41.224V49H150.934ZM175.584 49.32C174.24 49.32 173.024 49.0107 171.936 48.392C170.848 47.752 169.984 46.8453 169.344 45.672C168.704 44.4987 168.384 43.1013 168.384 41.48C168.384 39.8587 168.704 38.4613 169.344 37.288C169.984 36.1147 170.848 35.2187 171.936 34.6C173.024 33.96 174.24 33.64 175.584 33.64C176.714 33.64 177.696 33.8427 178.528 34.248C179.36 34.6533 180.021 35.1973 180.512 35.88V27.624H184.192V49H180.704V46.824C180.234 47.5707 179.562 48.1787 178.688 48.648C177.813 49.096 176.778 49.32 175.584 49.32ZM176.416 46.152C177.248 46.152 177.984 45.96 178.624 45.576C179.264 45.192 179.765 44.648 180.128 43.944C180.49 43.24 180.672 42.4187 180.672 41.48C180.672 40.52 180.49 39.6987 180.128 39.016C179.765 38.312 179.264 37.768 178.624 37.384C177.984 37 177.248 36.808 176.416 36.808C175.584 36.808 174.837 37 174.176 37.384C173.536 37.768 173.034 38.312 172.672 39.016C172.33 39.6987 172.16 40.52 172.16 41.48C172.16 42.4187 172.33 43.24 172.672 43.944C173.034 44.648 173.536 45.192 174.176 45.576C174.837 45.96 175.584 46.152 176.416 46.152ZM188.496 49V33.96H192.016V36.424C192.422 35.5067 192.976 34.8347 193.68 34.408C194.384 33.9813 195.174 33.768 196.048 33.768C196.347 33.768 196.614 33.7893 196.848 33.832C197.083 33.8533 197.264 33.896 197.392 33.96V37.448C197.094 37.384 196.795 37.3307 196.496 37.288C196.198 37.2453 195.91 37.224 195.632 37.224C194.63 37.224 193.798 37.6187 193.136 38.408C192.475 39.176 192.144 40.2853 192.144 41.736V49H188.496ZM207.077 49.32C205.541 49.32 204.154 49.0213 202.917 48.424C201.679 47.8267 200.687 46.952 199.941 45.8C199.215 44.6267 198.853 43.1867 198.853 41.48C198.853 39.88 199.194 38.4933 199.877 37.32C200.581 36.1467 201.509 35.24 202.661 34.6C203.834 33.96 205.146 33.64 206.597 33.64C208.09 33.64 209.391 33.928 210.501 34.504C211.61 35.0587 212.474 35.8267 213.093 36.808C213.711 37.7893 214.021 38.9093 214.021 40.168C214.021 40.5307 213.967 40.936 213.861 41.384C213.754 41.832 213.626 42.1947 213.477 42.472H202.597C202.703 43.304 202.959 44.008 203.365 44.584C203.791 45.1387 204.346 45.5653 205.029 45.864C205.711 46.1413 206.511 46.28 207.429 46.28C208.389 46.28 209.242 46.1413 209.989 45.864C210.757 45.5653 211.493 45.1707 212.197 44.68L213.381 47.304C212.506 47.9653 211.546 48.4667 210.501 48.808C209.455 49.1493 208.314 49.32 207.077 49.32ZM202.597 39.912H210.213C210.234 39.848 210.245 39.7947 210.245 39.752C210.266 39.688 210.277 39.6347 210.277 39.592C210.277 38.9733 210.149 38.4507 209.893 38.024C209.637 37.576 209.242 37.224 208.709 36.968C208.175 36.712 207.503 36.584 206.693 36.584C206.01 36.584 205.381 36.7227 204.805 37C204.25 37.256 203.781 37.64 203.397 38.152C203.013 38.6427 202.746 39.2293 202.597 39.912Z" fill="white"/>
</g>
<defs>
<filter id="filter0_d_98_2103" x="0.382812" y="0" width="291.235" height="83" filterUnits="userSpaceOnUse" color-interpolation-filters="sRGB">
<feFlood flood-opacity="0" result="BackgroundImageFix"/>
<feColorMatrix in="SourceAlpha" type="matrix" values="0 0 0 0 0 0 0 0 0 0 0 0 0 0 0 0 0 0 127 0" result="hardAlpha"/>
<feOffset dy="4"/>
<feGaussianBlur stdDeviation="6"/>
<feComposite in2="hardAlpha" operator="out"/>
<feColorMatrix type="matrix" values="0 0 0 0 0.0745098 0 0 0 0 0.0352941 0 0 0 0 0.129412 0 0 0 1 0"/>
<feBlend mode="normal" in2="BackgroundImageFix" result="effect1_dropShadow_98_2103"/>
<feBlend mode="normal" in="SourceGraphic" in2="effect1_dropShadow_98_2103" result="shape"/>
</filter>
</defs>
</svg>
